<svg width="501" height="500" viewBox="0 0 501 500" fill="none" xmlns="http://www.w3.org/2000/svg">
<path d="M68.431 167.086C68.431 167.086 40.554 239.074 79.728 311.589C118.902 384.105 199.607 422.391 264.197 455.137C328.787 487.883 395.858 471.936 427.731 418.299C459.604 364.662 415.886 326.371 415.834 249.881C415.783 173.391 427.281 153.139 385.871 88.5169C344.461 23.8939 242.812 9.59194 165.971 57.5209C89.131 105.45 68.431 167.086 68.431 167.086Z" fill="#161815"/>
<path d="M113.099 91.4491C117.292 88.5481 121.706 85.9661 126.328 83.7541C159.651 67.8141 200.553 73.0621 232.579 91.4691C264.605 109.876 288.57 139.967 306.011 172.529C313.98 187.406 321.105 203.392 333.906 214.391C350.412 228.574 372.704 231.775 392.373 239.499C463.893 267.585 464.709 370.56 402.022 409.011C377.311 424.168 346.793 428.741 318.397 430.858C279.063 433.791 239.011 432.288 201.025 421.668C163.039 411.048 127.098 390.843 101.684 360.678C68.4 321.171 55.572 267.458 57.25 215.827C58.099 189.698 62.492 163.35 73.544 139.658C82.43 120.611 95.902 103.347 113.099 91.4491Z" fill="#161815"/>
<path d="M113.099 91.4491C117.292 88.5481 121.706 85.9661 126.328 83.7541C159.651 67.8141 200.553 73.0621 232.579 91.4691C264.605 109.876 288.57 139.967 306.011 172.529C313.98 187.406 321.105 203.392 333.906 214.391C350.412 228.574 372.704 231.775 392.373 239.499C463.893 267.585 464.709 370.56 402.022 409.011C377.311 424.168 346.793 428.741 318.397 430.858C279.063 433.791 239.011 432.288 201.025 421.668C163.039 411.048 127.098 390.843 101.684 360.678C68.4 321.171 55.572 267.458 57.25 215.827C58.099 189.698 62.492 163.35 73.544 139.658C82.43 120.611 95.902 103.347 113.099 91.4491Z" fill="#161815"/>
<path d="M135.864 134.915C136.206 133.429 136.392 131.885 136.392 130.296C136.392 118.957 127.2 109.764 115.86 109.764C114.006 109.764 112.21 110.014 110.502 110.475C107.121 104.492 100.706 100.45 93.344 100.45C82.881 100.45 74.327 108.609 73.688 118.911C72.722 118.73 71.728 118.625 70.709 118.625C62.432 118.625 55.622 124.872 54.717 132.907C49.857 133.012 45.948 136.977 45.948 141.862C45.948 146.813 49.962 150.827 54.913 150.827H130.2C135.151 150.827 139.165 146.813 139.165 141.862C139.165 139.06 137.878 136.559 135.864 134.915Z" stroke="white" stroke-miterlimit="10" stroke-linecap="round" stroke-linejoin="round"/>
<path d="M81.095 166.061V186.808" stroke="white" stroke-miterlimit="10" stroke-linecap="round" stroke-linejoin="round"/>
<path d="M81.095 153.613V161.911" stroke="white" stroke-miterlimit="10" stroke-linecap="round" stroke-linejoin="round"/>
<path d="M81.095 145.857V150.296" stroke="white" stroke-miterlimit="10" stroke-linecap="round" stroke-linejoin="round"/>
<path d="M77.177 184.383L81.095 189.233L85.013 184.383" stroke="white" stroke-miterlimit="10" stroke-linecap="round" stroke-linejoin="round"/>
<path d="M94.467 174.95V195.697" stroke="white" stroke-miterlimit="10" stroke-linecap="round" stroke-linejoin="round"/>
<path d="M94.467 162.502V170.8" stroke="white" stroke-miterlimit="10" stroke-linecap="round" stroke-linejoin="round"/>
<path d="M94.467 154.747V159.186" stroke="white" stroke-miterlimit="10" stroke-linecap="round" stroke-linejoin="round"/>
<path d="M90.549 193.272L94.467 198.122L98.385 193.272" stroke="white" stroke-miterlimit="10" stroke-linecap="round" stroke-linejoin="round"/>
<path d="M106.961 157.511V178.258" stroke="white" stroke-miterlimit="10" stroke-linecap="round" stroke-linejoin="round"/>
<path d="M106.961 145.063V153.362" stroke="white" stroke-miterlimit="10" stroke-linecap="round" stroke-linejoin="round"/>
<path d="M106.961 137.308V141.747" stroke="white" stroke-miterlimit="10" stroke-linecap="round" stroke-linejoin="round"/>
<path d="M103.043 175.833L106.962 180.683L110.88 175.833" stroke="white" stroke-miterlimit="10" stroke-linecap="round" stroke-linejoin="round"/>
<path d="M305.625 275.09C305.283 273.604 305.097 272.06 305.097 270.47C305.097 259.131 314.289 249.938 325.628 249.938C327.483 249.938 329.278 250.188 330.987 250.649C334.368 244.666 340.783 240.624 348.145 240.624C358.608 240.624 367.162 248.783 367.801 259.085C368.767 258.904 369.761 258.799 370.78 258.799C379.057 258.799 385.867 265.046 386.772 273.081C391.632 273.186 395.541 277.151 395.541 282.036C395.541 286.987 391.527 291.001 386.576 291.001H311.289C306.338 291.001 302.324 286.987 302.324 282.036C302.323 279.235 303.611 276.734 305.625 275.09Z" stroke="#6DE754" stroke-miterlimit="10" stroke-linecap="round" stroke-linejoin="round"/>
<path d="M357.19 298.631V277.884" stroke="#6DE754" stroke-miterlimit="10" stroke-linecap="round" stroke-linejoin="round"/>
<path d="M357.19 311.079V302.781" stroke="#6DE754" stroke-miterlimit="10" stroke-linecap="round" stroke-linejoin="round"/>
<path d="M357.19 318.834V314.395" stroke="#6DE754" stroke-miterlimit="10" stroke-linecap="round" stroke-linejoin="round"/>
<path d="M361.108 280.309L357.19 275.459L353.272 280.309" stroke="#6DE754" stroke-miterlimit="10" stroke-linecap="round" stroke-linejoin="round"/>
<path d="M343.818 289.742V268.995" stroke="#6DE754" stroke-miterlimit="10" stroke-linecap="round" stroke-linejoin="round"/>
<path d="M343.818 302.19V293.892" stroke="#6DE754" stroke-miterlimit="10" stroke-linecap="round" stroke-linejoin="round"/>
<path d="M343.818 309.945V305.506" stroke="#6DE754" stroke-miterlimit="10" stroke-linecap="round" stroke-linejoin="round"/>
<path d="M347.736 271.42L343.818 266.57L339.9 271.42" stroke="#6DE754" stroke-miterlimit="10" stroke-linecap="round" stroke-linejoin="round"/>
<path d="M331.324 307.181V286.434" stroke="#6DE754" stroke-miterlimit="10" stroke-linecap="round" stroke-linejoin="round"/>
<path d="M331.324 319.629V311.33" stroke="#6DE754" stroke-miterlimit="10" stroke-linecap="round" stroke-linejoin="round"/>
<path d="M331.324 327.384V322.945" stroke="#6DE754" stroke-miterlimit="10" stroke-linecap="round" stroke-linejoin="round"/>
<path d="M335.242 288.859L331.324 284.009L327.406 288.859" stroke="#6DE754" stroke-miterlimit="10" stroke-linecap="round" stroke-linejoin="round"/>
<path d="M34.833 445.477H468.797" stroke="white" stroke-miterlimit="10"/>
<path d="M363.289 383.995C363.289 383.995 380.527 385.355 381.246 398.074C381.246 398.074 363.79 406.111 363.289 383.995Z" fill="#6DE754" stroke="white" stroke-miterlimit="10" stroke-linecap="round" stroke-linejoin="round"/>
<path d="M397.389 387.153C397.389 387.153 407.019 374.133 422.58 380.81C422.58 380.81 413.078 396.551 397.389 387.153Z" fill="#6DE754" stroke="white" stroke-miterlimit="10" stroke-linecap="round" stroke-linejoin="round"/>
<path d="M421.261 346.046C421.261 346.046 424.03 371.095 401.23 364.197C401.23 364.197 408.47 345.782 421.261 346.046Z" fill="#6DE754" stroke="white" stroke-miterlimit="10" stroke-linecap="round" stroke-linejoin="round"/>
<path d="M393.267 332.102C393.267 332.102 411.299 341.826 398.041 356.581C398.041 356.581 385.394 346.043 393.267 332.102Z" fill="#6DE754" stroke="white" stroke-miterlimit="10" stroke-linecap="round" stroke-linejoin="round"/>
<path d="M371.079 354.485C371.079 354.485 390.685 352.507 390.685 370.656C390.685 370.656 371.079 371.428 371.079 354.485Z" fill="#6DE754" stroke="white" stroke-miterlimit="10" stroke-linecap="round" stroke-linejoin="round"/>
<path d="M389.568 423.98C389.568 423.98 380.629 405.222 389.209 386.118C397.789 367.013 400.69 350.926 396.207 339.585" stroke="white" stroke-miterlimit="10" stroke-linecap="round" stroke-linejoin="round"/>
<path d="M377.52 359.364C377.52 359.364 389.272 364.033 393.266 376.138" stroke="white" stroke-miterlimit="10" stroke-linecap="round" stroke-linejoin="round"/>
<path d="M415.064 356.068C415.064 356.068 408.273 365.319 396.767 364.32" stroke="white" stroke-miterlimit="10" stroke-linecap="round" stroke-linejoin="round"/>
<path d="M415.064 383.471C415.064 383.471 396.255 388.89 388.78 387.116" stroke="white" stroke-miterlimit="10" stroke-linecap="round" stroke-linejoin="round"/>
<path d="M368.91 389.723C368.91 389.723 377.317 398.951 385.773 398.806" stroke="white" stroke-miterlimit="10" stroke-linecap="round" stroke-linejoin="round"/>
<path d="M367.964 409.117H407.433L403.299 445.195H372.098L367.964 409.117Z" fill="#6DE754"/>
<path d="M408.135 413.409H367.262C366.713 413.409 366.267 412.964 366.267 412.414V409.315C366.267 408.766 366.712 408.32 367.262 408.32H408.135C408.684 408.32 409.13 408.765 409.13 409.315V412.414C409.129 412.964 408.684 413.409 408.135 413.409Z" fill="#6DE754"/>
<path d="M371.079 413.409H394.852" stroke="white" stroke-miterlimit="10" stroke-linecap="round" stroke-linejoin="round"/>
<path d="M399.335 413.409H402.907" stroke="white" stroke-miterlimit="10" stroke-linecap="round" stroke-linejoin="round"/>
<path d="M460.93 106.79V252.82C460.93 256.52 457.93 259.52 454.23 259.52H171.48C167.78 259.52 164.77 256.52 164.77 252.82V106.79C164.77 103.09 167.78 100.09 171.48 100.09H454.23C457.93 100.09 460.93 103.09 460.93 106.79Z" fill="white"/>
<mask id="mask0_165_522" style="mask-type:luminance" maskUnits="userSpaceOnUse" x="164" y="100" width="297" height="160">
<path d="M460.93 106.79V252.82C460.93 256.52 457.93 259.52 454.23 259.52H171.48C167.78 259.52 164.77 256.52 164.77 252.82V106.79C164.77 103.09 167.78 100.09 171.48 100.09H454.23C457.93 100.09 460.93 103.09 460.93 106.79Z" fill="white"/>
</mask>
<g mask="url(#mask0_165_522)">
<path opacity="0.2" d="M460.93 114.55V252.82C460.93 256.52 457.93 259.52 454.23 259.52H276.34V114.55H460.93Z" fill="white"/>
</g>
<path d="M460.93 106.79V252.82C460.93 256.52 457.93 259.52 454.23 259.52H171.48C167.78 259.52 164.77 256.52 164.77 252.82V106.79C164.77 103.09 167.78 100.09 171.48 100.09H454.23C457.93 100.09 460.93 103.09 460.93 106.79Z" stroke="white" stroke-miterlimit="10" stroke-linecap="round" stroke-linejoin="round"/>
<path d="M436.164 173.626H399.37C395.267 173.626 391.941 176.952 391.941 181.055C391.941 185.158 395.267 188.484 399.37 188.484H436.164C440.267 188.484 443.593 185.158 443.593 181.055C443.592 176.952 440.266 173.626 436.164 173.626Z" fill="#6DE754" stroke="#161815" stroke-miterlimit="10" stroke-linecap="round" stroke-linejoin="round"/>
<path d="M460.93 106.79V120.47H164.77V106.79C164.77 103.09 167.78 100.09 171.48 100.09H454.23C457.93 100.09 460.93 103.09 460.93 106.79Z" fill="#161815" stroke="white" stroke-miterlimit="10" stroke-linecap="round" stroke-linejoin="round"/>
<path d="M177.302 114.549C179.851 114.549 181.917 112.483 181.917 109.934C181.917 107.385 179.851 105.319 177.302 105.319C174.753 105.319 172.687 107.385 172.687 109.934C172.687 112.483 174.753 114.549 177.302 114.549Z" fill="#6DE754" stroke="#263238" stroke-miterlimit="10" stroke-linecap="round" stroke-linejoin="round"/>
<path d="M189.802 114.549C192.351 114.549 194.417 112.483 194.417 109.934C194.417 107.385 192.351 105.319 189.802 105.319C187.253 105.319 185.187 107.385 185.187 109.934C185.187 112.483 187.253 114.549 189.802 114.549Z" fill="#757575" stroke="#263238" stroke-miterlimit="10" stroke-linecap="round" stroke-linejoin="round"/>
<path d="M202.302 114.549C204.851 114.549 206.917 112.483 206.917 109.934C206.917 107.385 204.851 105.319 202.302 105.319C199.753 105.319 197.687 107.385 197.687 109.934C197.687 112.483 199.753 114.549 202.302 114.549Z" fill="white" stroke="#263238" stroke-miterlimit="10" stroke-linecap="round" stroke-linejoin="round"/>
<path d="M276.335 120.47V259.65" stroke="#161815" stroke-miterlimit="10" stroke-linecap="round" stroke-linejoin="round"/>
<path d="M450.852 114.549H386.105C383.556 114.549 381.49 112.483 381.49 109.934C381.49 107.385 383.556 105.319 386.105 105.319H450.852C453.401 105.319 455.467 107.385 455.467 109.934C455.467 112.483 453.401 114.549 450.852 114.549Z" fill="white" stroke="#263238" stroke-miterlimit="10" stroke-linecap="round" stroke-linejoin="round"/>
<path d="M439.043 163.341H298.924C296.411 163.341 294.375 161.304 294.375 158.792C294.375 156.279 296.412 154.243 298.924 154.243H439.043C441.556 154.243 443.592 156.28 443.592 158.792C443.592 161.304 441.556 163.341 439.043 163.341Z" fill="#909090" stroke="#161815" stroke-miterlimit="10"/>
<path d="M374.043 163.341H298.924C296.411 163.341 294.375 161.304 294.375 158.792C294.375 156.279 296.412 154.243 298.924 154.243H374.043C376.556 154.243 378.592 156.28 378.592 158.792C378.592 161.304 376.556 163.341 374.043 163.341Z" fill="#6DE754" stroke="#161815" stroke-miterlimit="10" stroke-linecap="round" stroke-linejoin="round"/>
<path d="M304.685 227.96H298.511V234.134H304.685V227.96Z" stroke="#263238" stroke-miterlimit="10" stroke-linecap="round" stroke-linejoin="round"/>
<path d="M300.387 230.624L301.298 231.861L302.81 229.71" stroke="#263238" stroke-miterlimit="10" stroke-linecap="round" stroke-linejoin="round"/>
<path opacity="0.3" d="M358.193 232.844H316.171C315.179 232.844 314.374 232.039 314.374 231.047C314.374 230.055 315.179 229.25 316.171 229.25H358.193C359.185 229.25 359.99 230.055 359.99 231.047C359.99 232.039 359.186 232.844 358.193 232.844Z" fill="black"/>
<path d="M207.319 234.728H207.343L208.339 227.879H209.55L208.255 236.275H206.288L204.993 227.879H206.325L207.319 234.728Z" fill="#263238"/>
<path d="M211.483 231.417H213.294V232.616H211.483V235.075H213.762V236.274H210.164V227.878H213.762V229.077H211.483V231.417Z" fill="#263238"/>
<path d="M217.338 236.275C217.266 236.059 217.218 235.927 217.218 235.244V233.925C217.218 233.146 216.954 232.858 216.355 232.858H215.899V236.276H214.58V227.88H216.571C217.938 227.88 218.526 228.516 218.526 229.811V230.471C218.526 231.334 218.25 231.886 217.662 232.162V232.185C218.322 232.461 218.538 233.084 218.538 233.96V235.255C218.538 235.663 218.55 235.963 218.682 236.275H217.338ZM215.899 229.079V231.658H216.415C216.907 231.658 217.207 231.442 217.207 230.77V229.943C217.207 229.342 217.003 229.079 216.535 229.079H215.899Z" fill="#263238"/>
<path d="M220.675 235.003V236.274H219.404V235.003H220.675Z" fill="#263238"/>
<path d="M225.427 228.983C225.007 228.983 224.743 229.211 224.743 229.81V230.71H223.496V229.894C223.496 228.551 224.167 227.784 225.463 227.784C226.758 227.784 227.43 228.552 227.43 229.894C227.43 231.01 227.022 231.91 225.799 233.216C225.019 234.056 224.803 234.451 224.803 234.896C224.803 234.956 224.803 235.015 224.815 235.076H227.31V236.275H223.496V235.244C223.496 234.308 223.831 233.6 224.815 232.569C225.823 231.502 226.111 230.842 226.111 229.943C226.11 229.187 225.847 228.983 225.427 228.983Z" fill="#263238"/>
<path d="M229.519 235.003V236.274H228.248V235.003H229.519Z" fill="#263238"/>
<path d="M230.372 229.894C230.372 228.551 231.08 227.784 232.375 227.784C233.67 227.784 234.378 228.552 234.378 229.894V234.26C234.378 235.603 233.67 236.37 232.375 236.37C231.08 236.37 230.372 235.602 230.372 234.26V229.894ZM231.691 234.344C231.691 234.944 231.955 235.171 232.375 235.171C232.795 235.171 233.059 234.943 233.059 234.344V229.81C233.059 229.21 232.795 228.983 232.375 228.983C231.956 228.983 231.691 229.211 231.691 229.81V234.344Z" fill="#263238"/>
<path d="M236.419 233.564V234.344C236.419 234.944 236.683 235.16 237.103 235.16C237.523 235.16 237.787 234.944 237.787 234.344V232.496C237.787 231.896 237.523 231.669 237.103 231.669C236.684 231.669 236.419 231.897 236.419 232.496V232.748H235.172L235.412 227.879H238.89V229.078H236.587L236.479 231.081H236.503C236.743 230.686 237.115 230.47 237.643 230.47C238.614 230.47 239.106 231.154 239.106 232.389V234.26C239.106 235.603 238.435 236.37 237.139 236.37C235.844 236.37 235.172 235.602 235.172 234.26V233.564H236.419Z" fill="#263238"/>
<path d="M200.51 202.798C197.401 199.841 194.896 196.255 193.199 192.244" stroke="#263238" stroke-miterlimit="10" stroke-linecap="round" stroke-linejoin="round"/>
<path d="M229.312 149.357C239.506 151.719 247.8 159.037 251.521 168.634" stroke="#263238" stroke-miterlimit="10" stroke-linecap="round" stroke-linejoin="round"/>
<path d="M231.965 172.021V163.06L225.252 162.482C224.852 161.066 224.297 159.717 223.592 158.459L227.925 153.308L221.588 146.971L216.437 151.304C215.18 150.599 213.831 150.044 212.414 149.644L211.836 142.931H202.875L202.296 149.644C200.88 150.044 199.531 150.599 198.274 151.304L193.123 146.971L186.787 153.308L191.12 158.459C190.415 159.716 189.86 161.065 189.46 162.482L182.747 163.06V172.021L189.46 172.599C189.86 174.015 190.415 175.364 191.12 176.622L186.787 181.773L193.123 188.11L198.274 183.777C199.532 184.482 200.88 185.037 202.297 185.437L202.876 192.15H211.837L212.415 185.437C213.831 185.037 215.18 184.482 216.438 183.777L221.588 188.11L227.925 181.773L223.592 176.622C224.297 175.365 224.852 174.016 225.252 172.599L231.965 172.021ZM207.357 177.953C201.606 177.953 196.944 173.291 196.944 167.54C196.944 161.789 201.606 157.127 207.357 157.127C213.108 157.127 217.77 161.789 217.77 167.54C217.77 173.291 213.108 177.953 207.357 177.953Z" fill="#6DE754" stroke="#161815" stroke-miterlimit="10" stroke-linecap="round" stroke-linejoin="round"/>
<path d="M261.616 192.025V185.648L256.839 185.236C256.555 184.228 256.16 183.268 255.658 182.374L258.742 178.709L254.233 174.2L250.568 177.284C249.673 176.782 248.713 176.387 247.706 176.103L247.294 171.326H240.917L240.505 176.103C239.497 176.388 238.537 176.782 237.643 177.284L233.978 174.2L229.469 178.709L232.552 182.374C232.05 183.269 231.655 184.229 231.371 185.237L226.594 185.649V192.026L231.371 192.438C231.656 193.446 232.05 194.406 232.552 195.3L229.469 198.965L233.978 203.474L237.643 200.391C238.538 200.893 239.498 201.288 240.505 201.572L240.917 206.349H247.294L247.706 201.572C248.714 201.287 249.674 200.893 250.569 200.391L254.234 203.474L258.743 198.965L255.659 195.3C256.161 194.405 256.556 193.445 256.84 192.438L261.616 192.025ZM244.105 196.246C240.013 196.246 236.695 192.928 236.695 188.836C236.695 184.744 240.013 181.426 244.105 181.426C248.197 181.426 251.515 184.744 251.515 188.836C251.515 192.928 248.197 196.246 244.105 196.246Z" fill="#92E3A9"/>
<mask id="mask1_165_522" style="mask-type:luminance" maskUnits="userSpaceOnUse" x="226" y="171" width="36" height="36">
<path d="M261.616 192.025V185.648L256.839 185.236C256.555 184.228 256.16 183.268 255.658 182.374L258.742 178.709L254.233 174.2L250.568 177.284C249.673 176.782 248.713 176.387 247.706 176.103L247.294 171.326H240.917L240.505 176.103C239.497 176.388 238.537 176.782 237.643 177.284L233.978 174.2L229.469 178.709L232.552 182.374C232.05 183.269 231.655 184.229 231.371 185.237L226.594 185.649V192.026L231.371 192.438C231.656 193.446 232.05 194.406 232.552 195.3L229.469 198.965L233.978 203.474L237.643 200.391C238.538 200.893 239.498 201.288 240.505 201.572L240.917 206.349H247.294L247.706 201.572C248.714 201.287 249.674 200.893 250.569 200.391L254.234 203.474L258.743 198.965L255.659 195.3C256.161 194.405 256.556 193.445 256.84 192.438L261.616 192.025ZM244.105 196.246C240.013 196.246 236.695 192.928 236.695 188.836C236.695 184.744 240.013 181.426 244.105 181.426C248.197 181.426 251.515 184.744 251.515 188.836C251.515 192.928 248.197 196.246 244.105 196.246Z" fill="white"/>
</mask>
<g mask="url(#mask1_165_522)">
<path d="M261.616 192.025V185.648L256.839 185.236C256.555 184.228 256.16 183.268 255.658 182.374L258.742 178.709L254.233 174.2L250.568 177.284C249.673 176.782 248.713 176.387 247.706 176.103L247.294 171.326H240.917L240.505 176.103C239.497 176.388 238.537 176.782 237.643 177.284L233.978 174.2L229.469 178.709L232.552 182.374C232.05 183.269 231.655 184.229 231.371 185.237L226.594 185.649V192.026L231.371 192.438C231.656 193.446 232.05 194.406 232.552 195.3L229.469 198.965L233.978 203.474L237.643 200.391C238.538 200.893 239.498 201.288 240.505 201.572L240.917 206.349H247.294L247.706 201.572C248.714 201.287 249.674 200.893 250.569 200.391L254.234 203.474L258.743 198.965L255.659 195.3C256.161 194.405 256.556 193.445 256.84 192.438L261.616 192.025ZM244.105 196.246C240.013 196.246 236.695 192.928 236.695 188.836C236.695 184.744 240.013 181.426 244.105 181.426C248.197 181.426 251.515 184.744 251.515 188.836C251.515 192.928 248.197 196.246 244.105 196.246Z" fill="#6DE754"/>
</g>
<path d="M261.616 192.025V185.648L256.839 185.236C256.555 184.228 256.16 183.268 255.658 182.374L258.742 178.709L254.233 174.2L250.568 177.284C249.673 176.782 248.713 176.387 247.706 176.103L247.294 171.326H240.917L240.505 176.103C239.497 176.388 238.537 176.782 237.643 177.284L233.978 174.2L229.469 178.709L232.552 182.374C232.05 183.269 231.655 184.229 231.371 185.237L226.594 185.649V192.026L231.371 192.438C231.656 193.446 232.05 194.406 232.552 195.3L229.469 198.965L233.978 203.474L237.643 200.391C238.538 200.893 239.498 201.288 240.505 201.572L240.917 206.349H247.294L247.706 201.572C248.714 201.287 249.674 200.893 250.569 200.391L254.234 203.474L258.743 198.965L255.659 195.3C256.161 194.405 256.556 193.445 256.84 192.438L261.616 192.025ZM244.105 196.246C240.013 196.246 236.695 192.928 236.695 188.836C236.695 184.744 240.013 181.426 244.105 181.426C248.197 181.426 251.515 184.744 251.515 188.836C251.515 192.928 248.197 196.246 244.105 196.246Z" stroke="#161815" stroke-miterlimit="10" stroke-linecap="round" stroke-linejoin="round"/>
<path d="M230.422 206.877V202.339L227.023 202.046C226.821 201.329 226.539 200.646 226.182 200.009L228.376 197.401L225.167 194.193L222.559 196.387C221.922 196.03 221.239 195.749 220.522 195.547L220.229 192.148H215.691L215.398 195.547C214.681 195.749 213.998 196.031 213.361 196.387L210.753 194.193L207.545 197.401L209.739 200.009C209.382 200.646 209.101 201.329 208.899 202.046L205.5 202.339V206.877L208.899 207.17C209.101 207.887 209.383 208.57 209.739 209.207L207.545 211.815L210.753 215.023L213.361 212.829C213.998 213.186 214.681 213.467 215.398 213.669L215.691 217.068H220.229L220.522 213.669C221.239 213.467 221.922 213.185 222.559 212.829L225.167 215.023L228.376 211.815L226.182 209.207C226.539 208.57 226.82 207.887 227.023 207.17L230.422 206.877ZM217.962 209.881C215.05 209.881 212.689 207.52 212.689 204.608C212.689 201.696 215.05 199.335 217.962 199.335C220.874 199.335 223.235 201.696 223.235 204.608C223.234 207.521 220.874 209.881 217.962 209.881Z" fill="#6DE754"/>
<mask id="mask2_165_522" style="mask-type:luminance" maskUnits="userSpaceOnUse" x="205" y="192" width="26" height="26">
<path d="M230.422 206.877V202.339L227.023 202.046C226.821 201.329 226.539 200.646 226.182 200.009L228.376 197.401L225.167 194.193L222.559 196.387C221.922 196.03 221.239 195.749 220.522 195.547L220.229 192.148H215.691L215.398 195.547C214.681 195.749 213.998 196.031 213.361 196.387L210.753 194.193L207.545 197.401L209.739 200.009C209.382 200.646 209.101 201.329 208.899 202.046L205.5 202.339V206.877L208.899 207.17C209.101 207.887 209.383 208.57 209.739 209.207L207.545 211.815L210.753 215.023L213.361 212.829C213.998 213.186 214.681 213.467 215.398 213.669L215.691 217.068H220.229L220.522 213.669C221.239 213.467 221.922 213.185 222.559 212.829L225.167 215.023L228.376 211.815L226.182 209.207C226.539 208.57 226.82 207.887 227.023 207.17L230.422 206.877ZM217.962 209.881C215.05 209.881 212.689 207.52 212.689 204.608C212.689 201.696 215.05 199.335 217.962 199.335C220.874 199.335 223.235 201.696 223.235 204.608C223.234 207.521 220.874 209.881 217.962 209.881Z" fill="white"/>
</mask>
<g mask="url(#mask2_165_522)">
<path d="M230.422 206.877V202.339L227.023 202.046C226.821 201.329 226.539 200.646 226.182 200.009L228.376 197.401L225.167 194.193L222.559 196.387C221.922 196.03 221.239 195.749 220.522 195.547L220.229 192.148H215.691L215.398 195.547C214.681 195.749 213.998 196.031 213.361 196.387L210.753 194.193L207.545 197.401L209.739 200.009C209.382 200.646 209.101 201.329 208.899 202.046L205.5 202.339V206.877L208.899 207.17C209.101 207.887 209.383 208.57 209.739 209.207L207.545 211.815L210.753 215.023L213.361 212.829C213.998 213.186 214.681 213.467 215.398 213.669L215.691 217.068H220.229L220.522 213.669C221.239 213.467 221.922 213.185 222.559 212.829L225.167 215.023L228.376 211.815L226.182 209.207C226.539 208.57 226.82 207.887 227.023 207.17L230.422 206.877ZM217.962 209.881C215.05 209.881 212.689 207.52 212.689 204.608C212.689 201.696 215.05 199.335 217.962 199.335C220.874 199.335 223.235 201.696 223.235 204.608C223.234 207.521 220.874 209.881 217.962 209.881Z" fill="white"/>
</g>
<path d="M230.422 206.877V202.339L227.023 202.046C226.821 201.329 226.539 200.646 226.182 200.009L228.376 197.401L225.167 194.193L222.559 196.387C221.922 196.03 221.239 195.749 220.522 195.547L220.229 192.148H215.691L215.398 195.547C214.681 195.749 213.998 196.031 213.361 196.387L210.753 194.193L207.545 197.401L209.739 200.009C209.382 200.646 209.101 201.329 208.899 202.046L205.5 202.339V206.877L208.899 207.17C209.101 207.887 209.383 208.57 209.739 209.207L207.545 211.815L210.753 215.023L213.361 212.829C213.998 213.186 214.681 213.467 215.398 213.669L215.691 217.068H220.229L220.522 213.669C221.239 213.467 221.922 213.185 222.559 212.829L225.167 215.023L228.376 211.815L226.182 209.207C226.539 208.57 226.82 207.887 227.023 207.17L230.422 206.877ZM217.962 209.881C215.05 209.881 212.689 207.52 212.689 204.608C212.689 201.696 215.05 199.335 217.962 199.335C220.874 199.335 223.235 201.696 223.235 204.608C223.234 207.521 220.874 209.881 217.962 209.881Z" stroke="#161815" stroke-miterlimit="10" stroke-linecap="round" stroke-linejoin="round"/>
<path d="M249.11 167.545L251.521 168.634L252.472 166.456" stroke="#263238" stroke-miterlimit="10" stroke-linecap="round" stroke-linejoin="round"/>
<path d="M195.555 193.237L193.143 192.148L192.192 194.326" stroke="#263238" stroke-miterlimit="10" stroke-linecap="round" stroke-linejoin="round"/>
<path d="M295.693 142.991V147.902C295.693 148.356 295.892 148.52 296.211 148.52C296.529 148.52 296.73 148.356 296.73 147.902V142.991H297.676V147.839C297.676 148.858 297.166 149.44 296.184 149.44C295.202 149.44 294.693 148.858 294.693 147.839V142.991H295.693Z" fill="#263238"/>
<path d="M301.32 144.564V145.392C301.32 146.41 300.829 146.965 299.828 146.965H299.355V149.357H298.355V142.991H299.828C300.829 142.991 301.32 143.546 301.32 144.564ZM299.355 143.9V146.055H299.828C300.146 146.055 300.319 145.91 300.319 145.455V144.5C300.319 144.045 300.146 143.9 299.828 143.9H299.355Z" fill="#263238"/>
<path d="M304.901 149.357H303.891L303.718 148.202H302.49L302.317 149.357H301.4L302.418 142.991H303.882L304.901 149.357ZM302.619 147.338H303.583L303.109 144.119H303.091L302.619 147.338Z" fill="#263238"/>
<path d="M305.363 142.991H306.945C307.945 142.991 308.436 143.546 308.436 144.565V147.784C308.436 148.802 307.945 149.357 306.945 149.357H305.363V142.991ZM306.363 143.9V148.447H306.927C307.245 148.447 307.437 148.283 307.437 147.828V144.518C307.437 144.063 307.246 143.899 306.927 143.899L306.363 143.9Z" fill="#263238"/>
<path d="M312.3 149.357H311.29L311.117 148.202H309.889L309.716 149.357H308.798L309.817 142.991H311.281L312.3 149.357ZM310.018 147.338H310.982L310.508 144.119H310.49L310.018 147.338Z" fill="#263238"/>
<path d="M312.125 142.991H315.217V143.901H314.172V149.357H313.171V143.9H312.125V142.991Z" fill="#263238"/>
<path d="M315.651 142.991H316.652V149.357H315.651V142.991Z" fill="#263238"/>
<path d="M318.288 144.746H318.269V149.357H317.369V142.991H318.625L319.634 146.802H319.652V142.991H320.543V149.357H319.516L318.288 144.746Z" fill="#263238"/>
<path d="M322.76 145.81H324.16V147.829C324.16 148.848 323.651 149.43 322.669 149.43C321.687 149.43 321.178 148.848 321.178 147.829V144.519C321.178 143.501 321.687 142.919 322.669 142.919C323.652 142.919 324.16 143.501 324.16 144.519V145.137H323.215V144.455C323.215 144 323.015 143.828 322.697 143.828C322.379 143.828 322.178 144.001 322.178 144.455V147.893C322.178 148.348 322.378 148.512 322.697 148.512C323.015 148.512 323.215 148.349 323.215 147.893V146.72H322.76V145.81Z" fill="#263238"/>
<path d="M452.586 192.571L435.971 180.719L440.701 200.573L444.106 195.511L447.251 200.182L449.76 198.493L446.615 193.822L452.586 192.571Z" fill="#161815"/>
<path d="M254.511 281.637C256.562 278.75 270.065 286.788 268.404 292.499C266.742 298.21 261.341 297.593 258.176 294.56C255.01 291.527 252.313 284.73 254.511 281.637Z" fill="#6DE754"/>
<mask id="mask3_165_522" style="mask-type:luminance" maskUnits="userSpaceOnUse" x="253" y="281" width="16" height="16">
<path d="M254.511 281.637C256.562 278.75 270.065 286.788 268.404 292.499C266.742 298.21 261.341 297.593 258.176 294.56C255.01 291.527 252.313 284.73 254.511 281.637Z" fill="white"/>
</mask>
<g mask="url(#mask3_165_522)">
<path opacity="0.3" d="M254.511 281.637C256.562 278.75 270.065 286.788 268.404 292.499C266.742 298.21 261.341 297.593 258.176 294.56C255.01 291.527 252.313 284.73 254.511 281.637Z" fill="black" fill-opacity="0.7"/>
</g>
<path d="M254.511 281.637C256.562 278.75 270.065 286.788 268.404 292.499C266.742 298.21 261.341 297.593 258.176 294.56C255.01 291.527 252.313 284.73 254.511 281.637Z" stroke="#263238" stroke-miterlimit="10" stroke-linecap="round" stroke-linejoin="round"/>
<path d="M260.914 259.466C260.914 259.466 262.87 259.466 266.231 267.18C268.575 272.559 267.267 277.824 267.267 277.824L262.395 301.286L250.463 294.165L257.349 276.939C257.349 276.939 253.783 265.813 260.914 259.466Z" fill="white" stroke="#263238" stroke-miterlimit="10" stroke-linecap="round" stroke-linejoin="round"/>
<path d="M256.112 274.571L248.506 277.094C247.702 277.301 246.114 275.958 246.184 275.131L248.44 248.548C248.531 247.475 249.291 246.577 250.334 246.308L258.76 244.478C259.564 244.271 261.588 245.233 261.518 246.06L258.005 272.33C257.915 273.404 257.155 274.302 256.112 274.571Z" fill="#6DE754"/>
<mask id="mask4_165_522" style="mask-type:luminance" maskUnits="userSpaceOnUse" x="246" y="244" width="16" height="34">
<path d="M256.112 274.571L248.506 277.094C247.702 277.301 246.114 275.958 246.184 275.131L248.44 248.548C248.531 247.475 249.291 246.577 250.334 246.308L258.76 244.478C259.564 244.271 261.588 245.233 261.518 246.06L258.005 272.33C257.915 273.404 257.155 274.302 256.112 274.571Z" fill="white"/>
</mask>
<g mask="url(#mask4_165_522)">
<path opacity="0.3" d="M256.112 274.571L248.506 277.094C247.702 277.301 246.114 275.958 246.184 275.131L248.44 248.548C248.531 247.475 249.291 246.577 250.334 246.308L258.76 244.478C259.564 244.271 261.588 245.233 261.518 246.06L258.005 272.33C257.915 273.404 257.155 274.302 256.112 274.571Z" fill="black" fill-opacity="0.7"/>
</g>
<path d="M256.112 274.571L248.506 277.094C247.702 277.301 246.114 275.958 246.184 275.131L248.44 248.548C248.531 247.475 249.291 246.577 250.334 246.308L258.76 244.478C259.564 244.271 261.588 245.233 261.518 246.06L258.005 272.33C257.915 273.404 257.155 274.302 256.112 274.571Z" stroke="#263238" stroke-miterlimit="10" stroke-linecap="round" stroke-linejoin="round"/>
<path d="M257.364 275.226L248.938 277.056C248.134 277.263 247.366 276.614 247.437 275.787L249.694 249.204C249.785 248.131 250.545 247.233 251.588 246.964L260.014 245.134C260.818 244.927 261.586 245.576 261.515 246.403L259.259 272.986C259.167 274.059 258.407 274.957 257.364 275.226Z" fill="#6DE754" stroke="#263238" stroke-miterlimit="10" stroke-linecap="round" stroke-linejoin="round"/>
<path opacity="0.3" d="M252.692 254.123L251.333 254.418C251.203 254.451 251.08 254.347 251.091 254.213L251.455 249.926C251.47 249.753 251.592 249.608 251.76 249.565L253.119 249.27C253.249 249.237 253.372 249.341 253.361 249.475L252.997 253.762C252.983 253.935 252.86 254.08 252.692 254.123Z" fill="black" fill-opacity="0.7"/>
<path d="M264.543 267.448C264.87 263.721 261.477 258.127 259.222 258.127C256.967 258.127 250.094 263.418 250.094 263.418C247.435 265.345 248.752 267.18 248.752 267.18C247.187 268.214 246.76 269.612 247.474 270.261C248.273 270.986 250.463 270.261 250.463 270.261C250.463 270.261 248.184 271.927 248.751 272.745C250.093 274.679 254.51 272.127 254.51 272.127C254.51 272.127 251.947 273.818 252.094 274.138C253.061 276.249 257.246 273.788 257.246 273.788L260.188 275.295C260.188 275.295 260.155 277.786 262.869 277.824" fill="white"/>
<path d="M264.543 267.448C264.87 263.721 261.477 258.127 259.222 258.127C256.967 258.127 250.094 263.418 250.094 263.418C247.435 265.345 248.752 267.18 248.752 267.18C247.187 268.214 246.76 269.612 247.474 270.261C248.273 270.986 250.463 270.261 250.463 270.261C250.463 270.261 248.184 271.927 248.751 272.745C250.093 274.679 254.51 272.127 254.51 272.127C254.51 272.127 251.947 273.818 252.094 274.138C253.061 276.249 257.246 273.788 257.246 273.788L260.188 275.295C260.188 275.295 260.155 277.786 262.869 277.824" stroke="#263238" stroke-miterlimit="10" stroke-linecap="round" stroke-linejoin="round"/>
<path d="M248.752 267.18C248.752 267.18 255.184 263.024 255.995 262.911C256.806 262.799 259.786 262.152 259.786 262.152" fill="white"/>
<path d="M248.752 267.18C248.752 267.18 255.184 263.024 255.995 262.911C256.806 262.799 259.786 262.152 259.786 262.152" stroke="#263238" stroke-miterlimit="10" stroke-linecap="round" stroke-linejoin="round"/>
<path d="M250.464 270.26C250.464 270.26 255.689 267.562 256.645 267.562C257.649 267.562 260.914 266.825 260.914 266.825" fill="white"/>
<path d="M250.464 270.26C250.464 270.26 255.689 267.562 256.645 267.562C257.649 267.562 260.914 266.825 260.914 266.825" stroke="#263238" stroke-miterlimit="10" stroke-linecap="round" stroke-linejoin="round"/>
<path d="M254.511 272.126C254.511 272.126 255.9 271.162 256.444 270.987C256.988 270.812 260.189 270.987 260.189 270.987" fill="white"/>
<path d="M254.511 272.126C254.511 272.126 255.9 271.162 256.444 270.987C256.988 270.812 260.189 270.987 260.189 270.987" stroke="#263238" stroke-miterlimit="10" stroke-linecap="round" stroke-linejoin="round"/>
<path d="M203.054 271.992C213.076 272.143 236.021 307.967 236.021 307.967L250.463 289.98L254.51 281.638C254.51 281.638 256.476 296.637 268.403 292.5C268.403 292.5 257.925 331.88 246.182 336.627C234.439 341.374 201.835 307.967 201.835 307.967L203.054 271.992Z" fill="#6DE754"/>
<mask id="mask5_165_522" style="mask-type:luminance" maskUnits="userSpaceOnUse" x="201" y="271" width="68" height="67">
<path d="M203.054 271.992C213.076 272.143 236.021 307.967 236.021 307.967L250.463 289.98L254.51 281.638C254.51 281.638 256.476 296.637 268.403 292.5C268.403 292.5 257.925 331.88 246.182 336.627C234.439 341.374 201.835 307.967 201.835 307.967L203.054 271.992Z" fill="white"/>
</mask>
<g mask="url(#mask5_165_522)">
<path opacity="0.2" d="M203.868 309.99C207.998 314.04 217.778 323.3 227.308 329.87C224.508 320.5 216.838 310.52 216.838 310.52C214.458 309.73 211.098 302.6 211.098 302.6C209.518 303.2 207.278 298.25 207.278 298.25C205.438 299.82 204.408 304.43 203.868 309.99Z" fill="black" fill-opacity="0.7"/>
</g>
<mask id="mask6_165_522" style="mask-type:luminance" maskUnits="userSpaceOnUse" x="201" y="271" width="68" height="67">
<path d="M203.054 271.992C213.076 272.143 236.021 307.967 236.021 307.967L250.463 289.98L254.51 281.638C254.51 281.638 256.476 296.637 268.403 292.5C268.403 292.5 257.925 331.88 246.182 336.627C234.439 341.374 201.835 307.967 201.835 307.967L203.054 271.992Z" fill="white"/>
</mask>
<g mask="url(#mask6_165_522)">
<path opacity="0.2" d="M235.358 317.15C235.358 317.15 234.638 312.65 236.188 307.75L236.018 307.97C236.018 307.97 234.458 305.54 231.978 301.94C231.328 306.61 230.998 314.39 235.358 317.15Z" fill="black" fill-opacity="0.7"/>
</g>
<path d="M203.054 271.992C213.076 272.143 236.021 307.967 236.021 307.967L250.463 289.98L254.51 281.638C254.51 281.638 256.476 296.637 268.403 292.5C268.403 292.5 257.925 331.88 246.182 336.627C234.439 341.374 201.835 307.967 201.835 307.967L203.054 271.992Z" stroke="#263238" stroke-miterlimit="10" stroke-linecap="round" stroke-linejoin="round"/>
<path d="M99.406 426.254C99.406 426.254 93.076 438.963 93.076 441.993C93.076 445.023 92.021 446.336 86.483 446.336C80.945 446.336 67.23 446.46 65.12 445.477C65.12 445.477 54.142 445.477 52.296 445.477C49.254 445.477 48.076 442.6 49.922 442.993C51.768 443.385 65.373 439.618 69.065 438.101C72.757 436.583 78.853 434.78 82.131 431.609C85.409 428.438 89.384 416.613 89.384 416.613L99.406 426.254Z" fill="white" stroke="#263238" stroke-miterlimit="10" stroke-linecap="round" stroke-linejoin="round"/>
<path d="M65.12 445.477C65.12 441.758 69.076 443.539 75.142 441.993C79.012 441.006 79.415 439.64 79.415 439.64" stroke="#263238" stroke-miterlimit="10" stroke-linecap="round" stroke-linejoin="round"/>
<path d="M207.119 294.974C207.519 302.25 207.691 309.807 207.985 315.448C208.695 329.083 217.824 368.921 217.824 368.921C217.824 368.921 227.794 374.91 228.322 385.894C228.849 396.877 167.714 427.879 151.309 419.046C134.904 410.213 137.12 384.533 137.12 384.533C137.12 384.533 112.856 286.517 122.792 278.647C132.728 270.777 136.065 271.747 161.494 268.233C186.923 264.719 203.054 271.991 203.054 271.991C203.054 271.991 205.362 274.076 205.955 277.115" fill="#6DE754"/>
<mask id="mask7_165_522" style="mask-type:luminance" maskUnits="userSpaceOnUse" x="120" y="267" width="109" height="154">
<path d="M207.119 294.974C207.519 302.25 207.691 309.807 207.985 315.448C208.695 329.083 217.824 368.921 217.824 368.921C217.824 368.921 227.794 374.91 228.322 385.894C228.849 396.877 167.714 427.879 151.309 419.046C134.904 410.213 137.12 384.533 137.12 384.533C137.12 384.533 112.856 286.517 122.792 278.647C132.728 270.777 136.065 271.747 161.494 268.233C186.923 264.719 203.054 271.991 203.054 271.991C203.054 271.991 205.362 274.076 205.955 277.115" fill="white"/>
</mask>
<g mask="url(#mask7_165_522)">
<path opacity="0.2" d="M137.118 384.53C137.118 384.53 134.908 410.21 151.308 419.05C167.718 427.88 228.848 396.88 228.318 385.89C227.798 374.91 217.828 368.92 217.828 368.92C217.828 368.92 216.928 364.97 215.658 359.14C206.988 364.76 187.228 376.42 174.368 375.12C174.368 375.12 195.778 382.71 209.468 376.19C223.168 369.66 203.778 384.77 199.828 384.53C195.868 384.3 166.398 378.96 161.058 381.73C155.718 384.49 143.848 404.87 143.848 404.87C143.848 404.87 136.648 388.69 138.248 378.76C138.248 378.76 138.458 347.84 135.018 329.77C135.018 329.77 143.248 315.57 134.148 304.54C130.788 300.47 127.118 308.85 123.828 321.04C128.718 350.58 137.118 384.53 137.118 384.53Z" fill="black" fill-opacity="0.7"/>
</g>
<path d="M207.119 294.974C207.519 302.25 207.691 309.807 207.985 315.448C208.695 329.083 217.824 368.921 217.824 368.921C217.824 368.921 227.794 374.91 228.322 385.894C228.849 396.877 167.714 427.879 151.309 419.046C134.904 410.213 137.12 384.533 137.12 384.533C137.12 384.533 112.856 286.517 122.792 278.647C132.728 270.777 136.065 271.747 161.494 268.233C186.923 264.719 203.054 271.991 203.054 271.991C203.054 271.991 205.362 274.076 205.955 277.115" stroke="#263238" stroke-miterlimit="10" stroke-linecap="round" stroke-linejoin="round"/>
<path d="M219.406 378.297C220.946 378.103 225.116 380.741 225.116 380.741C225.116 380.741 292.555 363.426 302.703 368.922C323.055 379.946 312.198 401.689 307.978 407.927C303.758 414.165 241.517 443.644 219.89 444.202C198.264 444.759 158.644 438.79 150.837 426.065C143.03 413.34 151.023 399.215 161.874 388.847C172.915 378.298 194.446 387.528 201.835 385.418C211.366 382.696 214.704 378.89 219.406 378.297Z" fill="#909090"/>
<path d="M162.996 437.548L161.999 441.897C161.999 441.897 164.651 449.427 176.317 450.655C187.983 451.883 194.886 454.469 200.491 454.805C206.096 455.141 209.36 454.664 209.36 454.664L210.505 452.952L162.996 437.548Z" fill="white" stroke="#263238" stroke-miterlimit="10" stroke-linecap="round" stroke-linejoin="round"/>
<path d="M230.714 437.089L210.508 452.949C210.508 452.949 194.841 451.708 181.533 448.618L181.532 448.608C171.956 446.392 163.596 443.212 163.136 438.856C162.436 432.233 169.515 430.419 177.929 430.677C179.501 430.712 181.113 430.833 182.74 431.004C196.206 432.448 213.319 425.009 213.319 425.009L230.714 437.089Z" fill="#6DE754"/>
<mask id="mask8_165_522" style="mask-type:luminance" maskUnits="userSpaceOnUse" x="163" y="425" width="68" height="28">
<path d="M230.714 437.089L210.508 452.949C210.508 452.949 194.841 451.708 181.533 448.618L181.532 448.608C171.956 446.392 163.596 443.212 163.136 438.856C162.436 432.233 169.515 430.419 177.929 430.677C179.501 430.712 181.113 430.833 182.74 431.004C196.206 432.448 213.319 425.009 213.319 425.009L230.714 437.089Z" fill="white"/>
</mask>
<g mask="url(#mask8_165_522)">
<path opacity="0.2" d="M163.128 438.71C166.758 440.14 171.268 442.13 174.368 444.24C174.368 444.24 193.138 453.9 221.978 443.95L230.718 437.09L213.318 425.01C213.318 425.01 196.208 432.45 182.738 431C181.108 430.83 179.498 430.71 177.928 430.68C169.578 430.42 162.548 432.2 163.128 438.71Z" fill="black" fill-opacity="0.7"/>
</g>
<path d="M230.714 437.089L210.508 452.949C210.508 452.949 194.841 451.708 181.533 448.618L181.532 448.608C171.956 446.392 163.596 443.212 163.136 438.856C162.436 432.233 169.515 430.419 177.929 430.677C179.501 430.712 181.113 430.833 182.74 431.004C196.206 432.448 213.319 425.009 213.319 425.009L230.714 437.089Z" stroke="#263238" stroke-miterlimit="10" stroke-linecap="round" stroke-linejoin="round"/>
<path d="M211.877 443.34C215.52 443.934 211.517 451.385 206.579 449.122C201.641 446.859 208.234 442.746 211.877 443.34Z" fill="white"/>
<mask id="mask9_165_522" style="mask-type:luminance" maskUnits="userSpaceOnUse" x="204" y="443" width="10" height="7">
<path d="M211.877 443.34C215.52 443.934 211.517 451.385 206.579 449.122C201.641 446.859 208.234 442.746 211.877 443.34Z" fill="white"/>
</mask>
<g mask="url(#mask9_165_522)">
<path opacity="0.2" d="M205.038 447.92C207.528 447.62 210.148 447.17 212.888 446.55C213.588 445.09 213.428 443.59 211.878 443.34C208.818 442.84 203.678 445.66 205.038 447.92Z" fill="black" fill-opacity="0.7"/>
</g>
<path d="M211.877 443.34C215.52 443.934 211.517 451.385 206.579 449.122C201.641 446.859 208.234 442.746 211.877 443.34Z" stroke="#263238" stroke-miterlimit="10" stroke-linecap="round" stroke-linejoin="round"/>
<path d="M181.531 448.608C171.955 446.392 163.595 443.212 163.135 438.856C162.435 432.233 169.514 430.419 177.928 430.677C178.297 431.031 186.451 438.918 181.531 448.608Z" fill="white"/>
<mask id="mask10_165_522" style="mask-type:luminance" maskUnits="userSpaceOnUse" x="163" y="430" width="21" height="19">
<path d="M181.531 448.608C171.955 446.392 163.595 443.212 163.135 438.856C162.435 432.233 169.514 430.419 177.928 430.677C178.297 431.031 186.451 438.918 181.531 448.608Z" fill="white"/>
</mask>
<g mask="url(#mask10_165_522)">
<path opacity="0.2" d="M163.128 438.71C166.758 440.14 171.268 442.13 174.368 444.24C174.368 444.24 177.168 445.68 182.268 446.88C185.498 438 178.278 431.01 177.928 430.68C169.578 430.42 162.548 432.2 163.128 438.71Z" fill="black" fill-opacity="0.7"/>
</g>
<path d="M181.531 448.608C171.955 446.392 163.595 443.212 163.135 438.856C162.435 432.233 169.514 430.419 177.928 430.677C178.297 431.031 186.451 438.918 181.531 448.608Z" stroke="#263238" stroke-miterlimit="10" stroke-linecap="round" stroke-linejoin="round"/>
<path d="M188.361 440.383C188.342 440.385 188.322 440.386 188.304 440.387C187.752 440.414 187.283 439.988 187.257 439.437C187.056 435.265 183.845 431.867 183.812 431.833C183.431 431.434 183.443 430.802 183.841 430.42C184.239 430.038 184.87 430.051 185.253 430.447C185.406 430.607 189.016 434.405 189.253 439.341C189.279 439.872 188.884 440.327 188.361 440.383Z" fill="white" stroke="#263238" stroke-miterlimit="10" stroke-linecap="round" stroke-linejoin="round"/>
<path d="M192.364 440.623C192.336 440.626 192.307 440.628 192.278 440.628C191.725 440.639 191.269 440.2 191.258 439.649C191.174 435.434 188.227 431.779 188.197 431.742C187.849 431.315 187.911 430.685 188.337 430.336C188.765 429.986 189.391 430.047 189.743 430.474C189.883 430.643 193.16 434.687 193.257 439.608C193.269 440.131 192.875 440.569 192.364 440.623Z" fill="white" stroke="#263238" stroke-miterlimit="10" stroke-linecap="round" stroke-linejoin="round"/>
<path d="M197.151 440.117C197.145 440.118 197.139 440.118 197.134 440.119C196.584 440.167 196.098 439.76 196.05 439.21C195.743 435.705 192.762 431.225 192.731 431.18C192.424 430.721 192.546 430.101 193.005 429.793C193.462 429.483 194.085 429.608 194.392 430.065C194.527 430.266 197.69 435.015 198.043 439.035C198.09 439.579 197.692 440.06 197.151 440.117Z" fill="white" stroke="#263238" stroke-miterlimit="10" stroke-linecap="round" stroke-linejoin="round"/>
<path d="M201.675 439.639C201.587 439.648 201.496 439.646 201.404 439.631C200.859 439.539 200.492 439.024 200.582 438.48C201.293 434.232 197.347 430.595 197.307 430.558C196.899 430.188 196.867 429.556 197.236 429.147C197.605 428.738 198.237 428.705 198.647 429.074C198.844 429.252 203.448 433.472 202.555 438.81C202.479 439.263 202.11 439.593 201.675 439.639Z" fill="white" stroke="#263238" stroke-miterlimit="10" stroke-linecap="round" stroke-linejoin="round"/>
<path d="M206.587 438.458C206.48 438.469 206.369 438.463 206.258 438.438C205.72 438.314 205.384 437.778 205.508 437.24C206.378 433.454 202.645 429.175 202.607 429.133C202.242 428.719 202.281 428.087 202.694 427.722C203.106 427.356 203.738 427.394 204.104 427.806C204.287 428.012 208.559 432.893 207.456 437.689C207.358 438.114 207 438.414 206.587 438.458Z" fill="white" stroke="#263238" stroke-miterlimit="10" stroke-linecap="round" stroke-linejoin="round"/>
<path d="M310.53 431.044L311.978 435.264C311.978 435.264 310.132 443.031 298.659 445.477C287.186 447.923 280.593 451.22 275.055 452.143C269.516 453.066 266.22 452.934 266.22 452.934L264.901 451.351L310.53 431.044Z" fill="white" stroke="#263238" stroke-miterlimit="10" stroke-linecap="round" stroke-linejoin="round"/>
<path d="M243.138 437.7L264.898 451.35C264.898 451.35 280.348 448.47 293.258 444V443.99C302.548 440.78 310.528 436.74 310.528 432.36C310.528 425.7 303.298 424.64 294.958 425.78C293.398 425.98 291.808 426.27 290.208 426.61C276.968 429.46 259.168 423.86 259.168 423.86L243.138 437.7Z" fill="#6DE754"/>
<mask id="mask11_165_522" style="mask-type:luminance" maskUnits="userSpaceOnUse" x="243" y="423" width="68" height="29">
<path d="M243.138 437.7L264.898 451.35C264.898 451.35 280.348 448.47 293.258 444V443.99C302.548 440.78 310.528 436.74 310.528 432.36C310.528 425.7 303.298 424.64 294.958 425.78C293.398 425.98 291.808 426.27 290.208 426.61C276.968 429.46 259.168 423.86 259.168 423.86L243.138 437.7Z" fill="white"/>
</mask>
<g mask="url(#mask11_165_522)">
<path opacity="0.2" d="M243.138 437.7L255.938 445.73C268.788 441.86 277.148 433.67 281.928 427.42C270.578 427.45 259.168 423.86 259.168 423.86L243.138 437.7Z" fill="black" fill-opacity="0.7"/>
</g>
<path d="M243.138 437.7L264.898 451.35C264.898 451.35 280.348 448.47 293.258 444V443.99C302.548 440.78 310.528 436.74 310.528 432.36C310.528 425.7 303.298 424.64 294.958 425.78C293.398 425.98 291.808 426.27 290.208 426.61C276.968 429.46 259.168 423.86 259.168 423.86L243.138 437.7Z" stroke="#263238" stroke-miterlimit="10" stroke-linecap="round" stroke-linejoin="round"/>
<path d="M293.258 443.99C302.548 440.78 310.528 436.74 310.528 432.36C310.528 425.7 303.298 424.64 294.958 425.78C294.628 426.17 287.348 434.87 293.258 443.99Z" fill="white" stroke="#263238" stroke-miterlimit="10" stroke-linecap="round" stroke-linejoin="round"/>
<path d="M285.603 436.527C285.623 436.527 285.642 436.526 285.661 436.525C286.213 436.494 286.635 436.021 286.602 435.47C286.364 431.3 289.2 427.583 289.229 427.546C289.566 427.11 289.487 426.481 289.051 426.144C288.615 425.806 287.988 425.885 287.65 426.319C287.514 426.494 284.324 430.65 284.606 435.584C284.636 436.116 285.077 436.527 285.603 436.527Z" fill="white" stroke="#263238" stroke-miterlimit="10" stroke-linecap="round" stroke-linejoin="round"/>
<path d="M281.647 437.186C281.675 437.186 281.705 437.185 281.733 437.182C282.284 437.135 282.692 436.651 282.644 436.101C282.285 431.901 284.832 427.956 284.858 427.916C285.16 427.455 285.032 426.835 284.571 426.532C284.108 426.229 283.492 426.355 283.187 426.817C283.066 427 280.231 431.366 280.652 436.27C280.696 436.793 281.133 437.186 281.647 437.186Z" fill="white" stroke="#263238" stroke-miterlimit="10" stroke-linecap="round" stroke-linejoin="round"/>
<path d="M276.833 437.186C276.839 437.186 276.845 437.186 276.851 437.186C277.403 437.176 277.843 436.72 277.833 436.168C277.77 432.65 280.265 427.882 280.29 427.834C280.547 427.346 280.36 426.741 279.872 426.483C279.385 426.223 278.778 426.413 278.521 426.899C278.408 427.113 275.761 432.168 275.832 436.203C275.843 436.75 276.289 437.186 276.833 437.186Z" fill="white" stroke="#263238" stroke-miterlimit="10" stroke-linecap="round" stroke-linejoin="round"/>
<path d="M272.284 437.186C272.373 437.186 272.463 437.174 272.553 437.15C273.085 437.002 273.397 436.451 273.249 435.919C272.096 431.77 275.638 427.737 275.674 427.697C276.041 427.286 276.006 426.654 275.596 426.286C275.186 425.918 274.554 425.952 274.185 426.361C274.008 426.558 269.872 431.239 271.322 436.454C271.445 436.897 271.847 437.186 272.284 437.186Z" fill="white" stroke="#263238" stroke-miterlimit="10" stroke-linecap="round" stroke-linejoin="round"/>
<path d="M267.275 436.527C267.382 436.527 267.493 436.509 267.6 436.472C268.123 436.292 268.4 435.724 268.22 435.201C266.957 431.527 270.22 426.88 270.253 426.834C270.572 426.384 270.468 425.76 270.019 425.439C269.571 425.119 268.947 425.222 268.625 425.671C268.465 425.895 264.728 431.197 266.329 435.852C266.472 436.267 266.86 436.527 267.275 436.527Z" fill="white" stroke="#263238" stroke-miterlimit="10" stroke-linecap="round" stroke-linejoin="round"/>
<path d="M262.527 441.939C258.967 442.913 263.73 449.902 268.403 447.132C273.076 444.363 266.087 440.965 262.527 441.939Z" fill="white" stroke="#263238" stroke-miterlimit="10" stroke-linecap="round" stroke-linejoin="round"/>
<path d="M167.45 383.571C180.635 381.262 215.639 399.68 237.09 411.953C239.937 410.287 242.136 408.879 243.142 407.983C248.081 403.582 266.931 379.351 279.933 373.813L303.669 404.868C298.32 412.357 282.487 420.625 266.707 427.449C265.01 430.254 261.557 435.498 256.812 440.378C247.098 450.369 243.138 444.772 243.138 444.772C243.138 444.772 237.004 444.084 227.942 442.842C227.34 444.004 225.963 445.828 223.362 445.417C222.183 445.231 219.915 443.546 217.356 441.322C194.485 437.879 163.438 432.137 155.054 425.383C141.34 414.334 155.813 385.61 167.45 383.571Z" fill="#909090"/>
<path d="M132.124 294.974C134.597 302.978 134.804 314.433 132.769 323.37C132.769 323.37 123.893 362.65 122.793 371.198C121.693 379.747 106.66 412.983 105.868 423.86L98.962 433.803C98.962 433.803 88.857 433.041 82.132 425.383L86.879 414.854C86.879 414.854 91.231 398.658 92.813 396.409C94.395 394.16 99.589 363.617 101.344 358.627C103.099 353.637 113.607 287.129 122.793 278.647C122.793 278.647 125.239 278.453 126.242 280.376" fill="#6DE754"/>
<path d="M132.124 294.974C134.597 302.978 134.804 314.433 132.769 323.37C132.769 323.37 123.893 362.65 122.793 371.198C121.693 379.747 106.66 412.983 105.868 423.86L98.962 433.803C98.962 433.803 88.857 433.041 82.132 425.383L86.879 414.854C86.879 414.854 91.231 398.658 92.813 396.409C94.395 394.16 99.589 363.617 101.344 358.627C103.099 353.637 113.607 287.129 122.793 278.647C122.793 278.647 125.239 278.453 126.242 280.376" stroke="#263238" stroke-miterlimit="10" stroke-linecap="round" stroke-linejoin="round"/>
<path d="M265.623 421.453C260.944 419.505 254.219 421.453 254.219 421.453C254.219 421.453 232.149 411.841 217.032 402.692C201.915 393.543 180.241 386.67 180.241 386.67C171.933 386.077 167.977 386.274 164.021 390.626" stroke="white" stroke-miterlimit="10" stroke-linecap="round" stroke-linejoin="round"/>
<path d="M153.934 416.612C153.934 416.612 153.823 423.314 163.324 427.955" stroke="white" stroke-miterlimit="10" stroke-linecap="round" stroke-linejoin="round"/>
<path d="M258.769 388.648C258.769 388.648 243.76 399.495 240.769 406.648C240.769 406.648 234.999 409.103 232.246 411.04" stroke="white" stroke-miterlimit="10" stroke-linecap="round" stroke-linejoin="round"/>
<path d="M239.679 397.665C238.671 400.781 238.293 404.168 239.152 407.365" stroke="white" stroke-miterlimit="10" stroke-linecap="round" stroke-linejoin="round"/>
<path d="M243.138 390.626C242.315 391.81 241.609 393.075 240.99 394.377" stroke="white" stroke-miterlimit="10" stroke-linecap="round" stroke-linejoin="round"/>
<path d="M221.78 389.637C221.78 389.637 216.762 396.343 215.512 401.792" stroke="white" stroke-miterlimit="10" stroke-linecap="round" stroke-linejoin="round"/>
<path d="M193.829 430.192C191.963 430.072 190.099 429.866 188.263 429.506" stroke="white" stroke-miterlimit="10" stroke-linecap="round" stroke-linejoin="round"/>
<path d="M240.904 425.383C227.208 428 212.208 430 197.765 430.336" stroke="white" stroke-miterlimit="10" stroke-linecap="round" stroke-linejoin="round"/>
<path d="M236.021 307.966C236.021 307.966 233.054 313.087 236.021 318.626" stroke="#263238" stroke-miterlimit="10" stroke-linecap="round" stroke-linejoin="round"/>
<path d="M156.756 278.039C163.658 282.321 173.338 285.941 180.582 280.376" stroke="#263238" stroke-miterlimit="10" stroke-linecap="round" stroke-linejoin="round"/>
<path d="M151.309 274.121C152.247 274.916 153.23 275.658 154.234 276.367" stroke="#263238" stroke-miterlimit="10" stroke-linecap="round" stroke-linejoin="round"/>
<path d="M210.658 300.801C210.246 304.612 209.897 309.146 207.847 312.49" stroke="#263238" stroke-miterlimit="10" stroke-linecap="round" stroke-linejoin="round"/>
<path d="M211.098 295.286C211.047 296.325 210.975 297.363 210.888 298.4" stroke="#263238" stroke-miterlimit="10" stroke-linecap="round" stroke-linejoin="round"/>
<path d="M214.822 312.49C214.822 312.49 212.43 315.024 207.907 313.858" stroke="#263238" stroke-miterlimit="10" stroke-linecap="round" stroke-linejoin="round"/>
<path d="M137.912 302.604C137.912 302.604 137.611 319.019 132.124 326.24" stroke="#263238" stroke-miterlimit="10" stroke-linecap="round" stroke-linejoin="round"/>
<path d="M169.164 373.946C167.862 373.644 166.561 373.337 165.263 373.022" stroke="#263238" stroke-miterlimit="10" stroke-linecap="round" stroke-linejoin="round"/>
<path d="M217.824 368.922C212.208 369 207.208 373 202.208 377C192.208 383 182.208 375 171.812 374.553" stroke="#263238" stroke-miterlimit="10" stroke-linecap="round" stroke-linejoin="round"/>
<path d="M140.277 365.764C139.411 372.046 138.451 378.33 137.121 384.533" stroke="#263238" stroke-miterlimit="10" stroke-linecap="round" stroke-linejoin="round"/>
<path d="M141.274 357.989C141.097 359.507 140.906 361.023 140.709 362.538" stroke="#263238" stroke-miterlimit="10" stroke-linecap="round" stroke-linejoin="round"/>
<path d="M196.116 336.107C189.808 346.83 180.752 359.056 167.978 362.143" stroke="#263238" stroke-miterlimit="10" stroke-linecap="round" stroke-linejoin="round"/>
<path d="M202.988 322.385C201.457 326.174 199.618 329.852 197.643 333.428" stroke="#263238" stroke-miterlimit="10" stroke-linecap="round" stroke-linejoin="round"/>
<path d="M121.184 316.283C116.39 328.041 111.534 342.015 102.9 351.58" stroke="#263238" stroke-miterlimit="10" stroke-linecap="round" stroke-linejoin="round"/>
<path d="M124.461 307.966C123.799 309.723 123.114 311.471 122.42 313.215" stroke="#263238" stroke-miterlimit="10" stroke-linecap="round" stroke-linejoin="round"/>
<path d="M109.032 386.426C109.032 386.426 97.56 395.863 92.812 396.409" stroke="#263238" stroke-miterlimit="10" stroke-linecap="round" stroke-linejoin="round"/>
<path d="M89.729 426.471C87.562 425.283 85.002 423.777 83.903 421.453" stroke="#263238" stroke-miterlimit="10" stroke-linecap="round" stroke-linejoin="round"/>
<path d="M97.634 429.94C95.909 429.341 94.215 428.651 92.557 427.889" stroke="#263238" stroke-miterlimit="10" stroke-linecap="round" stroke-linejoin="round"/>
<path d="M255.589 297.46C256.86 298.675 258.424 299.693 260.189 299.969" stroke="#263238" stroke-miterlimit="10" stroke-linecap="round" stroke-linejoin="round"/>
<path d="M250.464 289.979C251.239 291.675 252.192 293.297 253.288 294.805" stroke="#263238" stroke-miterlimit="10" stroke-linecap="round" stroke-linejoin="round"/>
<path d="M152.788 269.81C152.788 269.81 159.778 279.9 171.778 278.52C178.398 277.75 177.718 272.65 177.718 272.65C177.718 272.65 176.468 272.01 175.718 270.09C175.008 268.28 174.738 265.33 176.388 260.72C176.428 260.59 176.478 260.45 176.528 260.32C178.408 255.27 155.758 248.25 155.758 248.25C155.758 248.25 158.528 261.31 152.788 269.81Z" fill="white" stroke="#263238" stroke-miterlimit="10" stroke-linecap="round" stroke-linejoin="round"/>
<path d="M163.758 257.24C163.758 257.24 167.958 267.71 175.718 270.09C175.008 268.28 174.738 265.33 176.388 260.72L163.758 257.24Z" fill="#263238"/>
<path d="M161.692 254.78C161.161 259.271 172.604 266.059 179.296 266.042C182.362 266.034 186.605 260.133 188.395 251.417C189.298 247.018 186.615 242.714 188.791 236.582C190.652 231.337 187.014 215.705 171.582 214.428C149.529 212.603 146.963 236.244 156.727 252.19" fill="white"/>
<path d="M161.692 254.78C161.161 259.271 172.604 266.059 179.296 266.042C182.362 266.034 186.605 260.133 188.395 251.417C189.298 247.018 186.615 242.714 188.791 236.582C190.652 231.337 187.014 215.705 171.582 214.428C149.529 212.603 146.963 236.244 156.727 252.19" stroke="#263238" stroke-miterlimit="10" stroke-linecap="round" stroke-linejoin="round"/>
<path d="M189.236 235.396C189.236 235.396 187.406 232.627 183.845 233.418" stroke="#263238" stroke-miterlimit="10" stroke-linecap="round" stroke-linejoin="round"/>
<path d="M176.527 233.275C176.527 233.275 171.978 232.824 169.208 235.395" stroke="#263238" stroke-miterlimit="10" stroke-linecap="round" stroke-linejoin="round"/>
<path d="M182.659 236.385C182.263 240.934 187.406 248.55 186.121 249.638C184.835 250.726 181.769 249.242 180.583 248.649" stroke="#263238" stroke-miterlimit="10" stroke-linecap="round" stroke-linejoin="round"/>
<path d="M174.648 241.626C175.14 241.626 175.538 241.073 175.538 240.39C175.538 239.707 175.14 239.154 174.648 239.154C174.156 239.154 173.758 239.707 173.758 240.39C173.758 241.073 174.156 241.626 174.648 241.626Z" fill="#263238"/>
<path d="M185.437 241.626C185.929 241.626 186.327 241.073 186.327 240.39C186.327 239.707 185.929 239.154 185.437 239.154C184.945 239.154 184.547 239.707 184.547 240.39C184.547 241.073 184.945 241.626 185.437 241.626Z" fill="#263238"/>
<path d="M182.56 254.484C182.56 254.484 177.318 255.176 174.648 252.407" stroke="#263238" stroke-miterlimit="10" stroke-linecap="round" stroke-linejoin="round"/>
<path d="M175.538 253.145C175.538 253.145 175.835 255.67 178.604 256.362C181.373 257.054 181.274 254.56 181.274 254.56" stroke="#263238" stroke-miterlimit="10" stroke-linecap="round" stroke-linejoin="round"/>
<path d="M167.725 224.516C167.725 224.516 192.252 231.241 194.824 220.857C194.824 220.857 190.363 221.391 185.437 216.011C179.395 209.411 169.703 207.703 161.494 210.67C153.285 213.637 153.78 217.938 153.78 217.938C153.78 217.938 148.934 218.583 146.758 224.418C144.582 230.253 148.015 250.889 156.252 255.275L158.527 252.407C158.527 252.407 157.615 246.522 161.494 242.121L163.67 242.681C163.67 242.681 161.296 237.584 163.769 234.802C166.241 232.02 167.923 228.374 167.725 224.516Z" fill="#263238"/>
<path d="M161.494 241.626C161.494 241.626 159.021 234.505 155.857 236.384C152.692 238.263 156.154 251.911 161.494 248.846" fill="white"/>
<path d="M161.494 241.626C161.494 241.626 159.021 234.505 155.857 236.384C152.692 238.263 156.154 251.911 161.494 248.846" stroke="#263238" stroke-miterlimit="10" stroke-linecap="round" stroke-linejoin="round"/>
<path opacity="0.3" d="M161.494 218.736C161.494 218.736 176.742 221.307 181.275 215.175" stroke="white" stroke-miterlimit="10" stroke-linecap="round" stroke-linejoin="round"/>
<path opacity="0.3" d="M171.384 222.297C171.384 222.297 181.983 225.857 189.236 222.297" stroke="white" stroke-miterlimit="10" stroke-linecap="round" stroke-linejoin="round"/>
<path opacity="0.3" d="M158.071 223.879C158.071 223.879 157.918 232.67 149.808 235.395" stroke="white" stroke-miterlimit="10" stroke-linecap="round" stroke-linejoin="round"/>
</svg>
